<?xml version="1.0" encoding="UTF-8"?>
<svg width="1200" height="1200" viewBox="0 0 1200 1200" xmlns="http://www.w3.org/2000/svg">
  <defs>
    <linearGradient id="bg" x1="0" y1="0" x2="1" y2="1">
      <stop offset="0%" stop-color="#F1FAF6"/>
      <stop offset="100%" stop-color="#E2F3EE"/>
    </linearGradient>
    <linearGradient id="primary" x1="0" y1="0" x2="1" y2="1">
      <stop offset="0%" stop-color="#5BB89E"/>
      <stop offset="100%" stop-color="#2E7D6D"/>
    </linearGradient>
  </defs>

  <rect x="0" y="0" width="1200" height="1200" fill="url(#bg)"/>

  <circle cx="600" cy="620" r="320" fill="#D9EEE7"/>
  <ellipse cx="600" cy="985" rx="280" ry="24" fill="#C6DFD7"/>

  <line x1="600" y1="300" x2="600" y2="360" stroke="#2F8A79" stroke-width="16" stroke-linecap="round"/>
  <circle cx="600" cy="286" r="14" fill="#2F8A79"/>

  <rect x="330" y="360" width="540" height="340" rx="88" fill="#FFFFFF" stroke="#2F8A79" stroke-width="16"/>
  <circle cx="470" cy="520" r="30" fill="#2F8A79"/>
  <circle cx="730" cy="520" r="30" fill="#2F8A79"/>
  <path d="M460 610 Q600 710 740 610" fill="none" stroke="#2F8A79" stroke-width="16" stroke-linecap="round"/>

  <rect x="550" y="700" width="100" height="64" rx="16" fill="url(#primary)"/>
  <rect x="450" y="760" width="300" height="170" rx="28" fill="#FFFFFF" stroke="#2F8A79" stroke-width="14"/>

  <rect x="325" y="840" width="550" height="28" rx="14" fill="url(#primary)"/>

  <circle cx="300" cy="855" r="110" fill="url(#primary)" stroke="#2F8A79" stroke-width="10"/>
  <circle cx="300" cy="855" r="78" fill="#E8F5F1" stroke="#2F8A79" stroke-width="8"/>
  <circle cx="300" cy="855" r="24" fill="#2F8A79"/>
  <line x1="248" y1="855" x2="352" y2="855" stroke="#2F8A79" stroke-width="8" stroke-linecap="round"/>
  <line x1="300" y1="803" x2="300" y2="907" stroke="#2F8A79" stroke-width="8" stroke-linecap="round"/>

  <circle cx="900" cy="855" r="110" fill="url(#primary)" stroke="#2F8A79" stroke-width="10"/>
  <circle cx="900" cy="855" r="78" fill="#E8F5F1" stroke="#2F8A79" stroke-width="8"/>
  <circle cx="900" cy="855" r="24" fill="#2F8A79"/>
  <line x1="848" y1="855" x2="952" y2="855" stroke="#2F8A79" stroke-width="8" stroke-linecap="round"/>
  <line x1="900" y1="803" x2="900" y2="907" stroke="#2F8A79" stroke-width="8" stroke-linecap="round"/>

  <text x="600" y="210" text-anchor="middle" fill="#2F8A79" font-family="Arial, sans-serif" font-size="110" font-weight="700">ArcoBot</text>
</svg>
